<?xml version="1.0" encoding="utf-8"?>
<!-- Generator: Adobe Illustrator 27.8.1, SVG Export Plug-In . SVG Version: 6.00 Build 0)  -->
<svg version="1.1" id="Layer_1" xmlns="http://www.w3.org/2000/svg" xmlns:xlink="http://www.w3.org/1999/xlink" x="0px" y="0px"
	 viewBox="0 0 1388.3 1322.1" style="enable-background:new 0 0 1388.3 1322.1;" xml:space="preserve">
<style type="text/css">
	.st0{fill:url(#SVGID_1_);}
	.st1{fill:url(#SVGID_00000128461158145774895020000011387923920503353244_);}
	.st2{fill:#FFFFFF;}
</style>
<radialGradient id="SVGID_1_" cx="304.145" cy="259.3632" r="582.9127" gradientUnits="userSpaceOnUse">
	<stop  offset="0" style="stop-color:#D7F1FC"/>
	<stop  offset="0.1215" style="stop-color:#ACE1F6"/>
	<stop  offset="0.2853" style="stop-color:#78CFF0"/>
	<stop  offset="0.4464" style="stop-color:#4DC0EA"/>
	<stop  offset="0.6015" style="stop-color:#2BB4E6"/>
	<stop  offset="0.7488" style="stop-color:#13ABE3"/>
	<stop  offset="0.8851" style="stop-color:#05A6E1"/>
	<stop  offset="1" style="stop-color:#00A4E0"/>
</radialGradient>
<ellipse class="st0" cx="666.1" cy="643.3" rx="584.9" ry="580.9"/>
<radialGradient id="SVGID_00000074428484175287854190000001725228064673208966_" cx="372.5909" cy="278.9589" r="2070.2458" gradientUnits="userSpaceOnUse">
	<stop  offset="5.517681e-02" style="stop-color:#008BD3"/>
	<stop  offset="0.1442" style="stop-color:#0076BD"/>
	<stop  offset="0.2953" style="stop-color:#00589D"/>
	<stop  offset="0.4527" style="stop-color:#004084"/>
	<stop  offset="0.6171" style="stop-color:#002F73"/>
	<stop  offset="0.7929" style="stop-color:#002568"/>
	<stop  offset="1" style="stop-color:#002265"/>
</radialGradient>
<ellipse style="fill:url(#SVGID_00000074428484175287854190000001725228064673208966_);" cx="723.4" cy="640.4" rx="527.6" ry="579.3"/>
<g>
	<path class="st2" d="M431.9,808.9c-41.5,0-81.7,0-122.4,0c4.1-3.4,8.7-6,11.7-9.8c4.3-5.5,8.9-11.5,11-18
		c29.8-94.2,59.2-188.5,88.9-282.8c3.5-11,2.5-20.3-8.6-28.5c3.1-0.3,4.8-0.7,6.4-0.7c48.8,0,97.6,0,146.4,0.2
		c19.5,0.1,38.5,3,56.1,12c30.8,15.8,41.6,41.4,36.2,73.5c-10.6,63.3-49.1,102-109.9,119.2c-27.6,7.8-55.9,10.4-84.5,8.4
		c-2.2-0.1-4.4,0-6.5-0.4c-3.6-0.6-4.9,1-5.9,4.3c-8.7,28-17.6,55.9-26.4,83.8c-1.3,4-2.6,7.9-3.8,11.9
		C417.1,793.7,420.2,801.7,431.9,808.9z M461.2,654.4c2.9,0.5,5.1,1.1,7.4,1.3c22.2,1.5,41.7-5.1,58.2-20.1
		c17-15.6,26.6-35.6,33.3-57.1c5.2-16.7,9.6-33.6,7.2-51.4c-2-15.3-11.2-26.1-26.3-28.8c-7.8-1.4-15.9-0.9-23.8-1.6
		c-4.8-0.4-7,1.4-8.4,6c-13.5,43.3-27.2,86.6-40.9,129.9C465.7,639.7,463.5,646.8,461.2,654.4z"/>
	<path class="st2" d="M1097.9,525.2c-11-6.9-21.2-14.4-32.3-19.8c-39.4-19.3-78.1-12.6-110.6,18.6c-29.1,27.9-47.4,62.4-60.2,100.1
		c-8.6,25.3-15.2,51.1-17.8,77.7c-1.4,14.3-1.6,28.6,1.5,42.8c6.6,30.7,29.6,46.5,60.7,42.1c5.3-0.7,7.9-2.6,9.5-8
		c11.1-36.3,22.6-72.4,34-108.6c5.9-18.7,3.6-25.1-13.3-35.7c44.2,0,87.9,0,132.4,0c-2.1,1.1-3.5,1.9-4.9,2.5
		c-12.3,5.7-20.3,15.1-24.4,28.1c-12.2,39.3-24.6,78.4-37.2,117.6c-0.8,2.5-2.9,5.4-5.1,6.5c-36.1,16.9-73.9,26.4-114,24.8
		c-23.6-0.9-46.2-6.2-67.3-16.8c-24.3-12.2-38.6-32.7-46.5-58c-9.6-30.6-9.1-61.8-3.1-92.9c7.7-40.1,23.2-76.8,50.9-107.4
		c39-43,87.6-66.9,145.4-72c38.2-3.3,75.4,1.7,112,12.7c2.7,0.8,4.6,1.5,3.4,5c-4.3,13.1-8.4,26.3-12.6,39.5
		C1098.3,524.5,1097.9,525,1097.9,525.2z"/>
	<path class="st2" d="M734.6,735c11.7-13.9,13.1-31.7,3.5-45c1.1-0.2,2-0.4,2.9-0.4c13,0,25.9,0,39.6,0c-1.2,27-12.7,48.6-31.4,67.5
		c23.6,22.9,50.6,39.2,81.2,51.4c-1.8,0.2-3,0.4-4.1,0.4c-25.2,0-50.3,0.1-75.5-0.1c-2.6,0-5.7-0.9-7.8-2.5
		c-7.2-5.4-14-11.3-20.9-17c-2-1.7-4-3.5-5.6-3.8c-15.3,7.3-30.2,15.4-45.9,21.6c-21.1,8.4-43.2,9.4-65.2,2.9
		c-32.2-9.5-50.5-39.3-45.9-72.6c3.5-25.5,17.9-43.1,38.5-56.7c15.1-10,32-16.4,49.1-21.8c5.2-1.7,7.1-3.8,7-9.7
		c-0.7-23.2,3.2-45.5,14.9-65.9c16.5-28.6,52.9-43.7,83.8-34.5c18,5.3,30.5,16.3,33,35.9c1.5,11.9-2.8,22.3-9.6,31.8
		c-8.8,12.3-20.6,21.3-33.6,28.6c-11.2,6.2-22.8,11.7-34.4,17.2c-3.8,1.8-4.8,3.7-4,7.9c4.6,23.7,15.3,44.6,29.1,64.1
		C733.6,734.6,734,734.7,734.6,735z M658.4,682.9c-8.8,6-17.1,11-24.6,16.9c-9.3,7.3-16.7,16.3-20.6,27.6c-6.5,19-1,45.9,28,51.1
		c20.5,3.7,38.4-4.5,56.6-13.5C679.9,740.1,667,713.4,658.4,682.9z M699.4,640.1c1.6-0.7,2.3-0.8,2.8-1.2
		c16.7-11.2,31.1-24.7,40.2-42.9c2.9-5.7,4.1-12.6,4.6-19.1c0.5-6.9-4.3-10.9-11.3-11.2c-8.7-0.3-14.9,4.4-20,10.6
		C700.8,594.9,697.8,616.5,699.4,640.1z"/>
</g>
</svg>
